<mxfile host="app.diagrams.net" agent="Mozilla/5.0 (Windows NT 10.0; Win64; x64) AppleWebKit/537.36 (KHTML, like Gecko) Chrome/137.0.0.0 Safari/537.36 Edg/137.0.0.0" version="27.1.6">
  <diagram name="Page-1" id="CjdiSLlN9PX5rPTUouvr">
    <mxGraphModel dx="864" dy="474" grid="1" gridSize="10" guides="1" tooltips="1" connect="1" arrows="1" fold="1" page="1" pageScale="1" pageWidth="850" pageHeight="1100" math="0" shadow="0">
      <root>
        <mxCell id="0" />
        <mxCell id="1" parent="0" />
        <mxCell id="3jRFPmHKz-0kJbSXt1-v-3" value="&lt;font style=&quot;font-size: 72px;&quot;&gt;Tebak Angka&lt;/font&gt;" style="text;html=1;align=center;verticalAlign=middle;whiteSpace=wrap;rounded=0;" vertex="1" parent="1">
          <mxGeometry x="100" y="110" width="550" height="80" as="geometry" />
        </mxCell>
        <mxCell id="3jRFPmHKz-0kJbSXt1-v-4" value="Start" style="text;html=1;align=center;verticalAlign=middle;whiteSpace=wrap;rounded=0;" vertex="1" parent="1">
          <mxGeometry x="50" y="270" width="60" height="30" as="geometry" />
        </mxCell>
        <mxCell id="3jRFPmHKz-0kJbSXt1-v-6" value="" style="endArrow=classic;html=1;rounded=0;exitX=1;exitY=0.5;exitDx=0;exitDy=0;" edge="1" parent="1" source="3jRFPmHKz-0kJbSXt1-v-4">
          <mxGeometry width="50" height="50" relative="1" as="geometry">
            <mxPoint x="400" y="370" as="sourcePoint" />
            <mxPoint x="140" y="285" as="targetPoint" />
          </mxGeometry>
        </mxCell>
        <mxCell id="3jRFPmHKz-0kJbSXt1-v-7" value="random number&lt;br&gt;(1 - 100)" style="text;html=1;align=center;verticalAlign=middle;whiteSpace=wrap;rounded=0;" vertex="1" parent="1">
          <mxGeometry x="140" y="270" width="60" height="30" as="geometry" />
        </mxCell>
        <mxCell id="3jRFPmHKz-0kJbSXt1-v-8" value="" style="endArrow=classic;html=1;rounded=0;exitX=1;exitY=0.5;exitDx=0;exitDy=0;" edge="1" parent="1" source="3jRFPmHKz-0kJbSXt1-v-7">
          <mxGeometry width="50" height="50" relative="1" as="geometry">
            <mxPoint x="230" y="300" as="sourcePoint" />
            <mxPoint x="230" y="285" as="targetPoint" />
          </mxGeometry>
        </mxCell>
        <mxCell id="3jRFPmHKz-0kJbSXt1-v-9" value="guess input" style="text;html=1;align=center;verticalAlign=middle;whiteSpace=wrap;rounded=0;" vertex="1" parent="1">
          <mxGeometry x="230" y="270" width="60" height="30" as="geometry" />
        </mxCell>
        <mxCell id="3jRFPmHKz-0kJbSXt1-v-12" value="" style="endArrow=classic;html=1;rounded=0;exitX=1;exitY=0.5;exitDx=0;exitDy=0;" edge="1" parent="1" source="3jRFPmHKz-0kJbSXt1-v-9" target="3jRFPmHKz-0kJbSXt1-v-50">
          <mxGeometry width="50" height="50" relative="1" as="geometry">
            <mxPoint x="170" y="235" as="sourcePoint" />
            <mxPoint x="860" y="285" as="targetPoint" />
            <Array as="points">
              <mxPoint x="760" y="285" />
            </Array>
          </mxGeometry>
        </mxCell>
        <mxCell id="3jRFPmHKz-0kJbSXt1-v-24" value="" style="endArrow=none;html=1;rounded=0;exitX=1;exitY=0.5;exitDx=0;exitDy=0;" edge="1" parent="1" source="3jRFPmHKz-0kJbSXt1-v-9">
          <mxGeometry width="50" height="50" relative="1" as="geometry">
            <mxPoint x="400" y="370" as="sourcePoint" />
            <mxPoint x="290" y="320" as="targetPoint" />
          </mxGeometry>
        </mxCell>
        <mxCell id="3jRFPmHKz-0kJbSXt1-v-25" value="" style="endArrow=classic;startArrow=classic;html=1;rounded=0;entryX=0;entryY=0.75;entryDx=0;entryDy=0;" edge="1" parent="1" target="3jRFPmHKz-0kJbSXt1-v-26">
          <mxGeometry width="50" height="50" relative="1" as="geometry">
            <mxPoint x="260" y="440" as="sourcePoint" />
            <mxPoint x="320" y="400" as="targetPoint" />
            <Array as="points">
              <mxPoint x="260" y="320" />
              <mxPoint x="290" y="320" />
              <mxPoint x="320" y="320" />
              <mxPoint x="320" y="373" />
            </Array>
          </mxGeometry>
        </mxCell>
        <mxCell id="3jRFPmHKz-0kJbSXt1-v-28" value="" style="edgeStyle=orthogonalEdgeStyle;rounded=0;orthogonalLoop=1;jettySize=auto;html=1;entryX=-0.012;entryY=0.5;entryDx=0;entryDy=0;entryPerimeter=0;" edge="1" parent="1" source="3jRFPmHKz-0kJbSXt1-v-26" target="3jRFPmHKz-0kJbSXt1-v-29">
          <mxGeometry relative="1" as="geometry">
            <mxPoint x="420" y="385" as="targetPoint" />
          </mxGeometry>
        </mxCell>
        <mxCell id="3jRFPmHKz-0kJbSXt1-v-26" value="Too small or&amp;nbsp;&lt;div&gt;Too Big&lt;/div&gt;" style="text;html=1;align=center;verticalAlign=middle;whiteSpace=wrap;rounded=0;" vertex="1" parent="1">
          <mxGeometry x="340" y="350" width="60" height="30" as="geometry" />
        </mxCell>
        <mxCell id="3jRFPmHKz-0kJbSXt1-v-53" value="" style="edgeStyle=orthogonalEdgeStyle;rounded=0;orthogonalLoop=1;jettySize=auto;html=1;entryX=0;entryY=0.5;entryDx=0;entryDy=0;" edge="1" parent="1" source="3jRFPmHKz-0kJbSXt1-v-29" target="3jRFPmHKz-0kJbSXt1-v-50">
          <mxGeometry relative="1" as="geometry">
            <mxPoint x="640" y="395" as="targetPoint" />
          </mxGeometry>
        </mxCell>
        <mxCell id="3jRFPmHKz-0kJbSXt1-v-61" value="" style="edgeStyle=orthogonalEdgeStyle;rounded=0;orthogonalLoop=1;jettySize=auto;html=1;" edge="1" parent="1" source="3jRFPmHKz-0kJbSXt1-v-29" target="3jRFPmHKz-0kJbSXt1-v-50">
          <mxGeometry relative="1" as="geometry" />
        </mxCell>
        <mxCell id="3jRFPmHKz-0kJbSXt1-v-62" value="" style="edgeStyle=orthogonalEdgeStyle;rounded=0;orthogonalLoop=1;jettySize=auto;html=1;" edge="1" parent="1" source="3jRFPmHKz-0kJbSXt1-v-29" target="3jRFPmHKz-0kJbSXt1-v-50">
          <mxGeometry relative="1" as="geometry" />
        </mxCell>
        <mxCell id="3jRFPmHKz-0kJbSXt1-v-29" value="Input Again" style="text;html=1;align=center;verticalAlign=middle;resizable=0;points=[];autosize=1;strokeColor=none;fillColor=none;" vertex="1" parent="1">
          <mxGeometry x="480" y="350" width="80" height="30" as="geometry" />
        </mxCell>
        <mxCell id="3jRFPmHKz-0kJbSXt1-v-59" value="" style="edgeStyle=orthogonalEdgeStyle;rounded=0;orthogonalLoop=1;jettySize=auto;html=1;" edge="1" parent="1" source="3jRFPmHKz-0kJbSXt1-v-30" target="3jRFPmHKz-0kJbSXt1-v-58">
          <mxGeometry relative="1" as="geometry" />
        </mxCell>
        <mxCell id="3jRFPmHKz-0kJbSXt1-v-30" value="&amp;lt; 1&amp;nbsp;&lt;span style=&quot;background-color: transparent; color: light-dark(rgb(0, 0, 0), rgb(255, 255, 255));&quot;&gt;&amp;amp;&amp;nbsp;&lt;/span&gt;&lt;span style=&quot;background-color: transparent; color: light-dark(rgb(0, 0, 0), rgb(255, 255, 255));&quot;&gt;&amp;gt; 100&lt;/span&gt;" style="text;html=1;align=center;verticalAlign=middle;whiteSpace=wrap;rounded=0;" vertex="1" parent="1">
          <mxGeometry x="220" y="440" width="80" height="50" as="geometry" />
        </mxCell>
        <mxCell id="3jRFPmHKz-0kJbSXt1-v-38" value="" style="edgeStyle=orthogonalEdgeStyle;rounded=0;orthogonalLoop=1;jettySize=auto;html=1;" edge="1" parent="1" source="3jRFPmHKz-0kJbSXt1-v-35" target="3jRFPmHKz-0kJbSXt1-v-37">
          <mxGeometry relative="1" as="geometry" />
        </mxCell>
        <mxCell id="3jRFPmHKz-0kJbSXt1-v-42" value="" style="edgeStyle=orthogonalEdgeStyle;rounded=0;orthogonalLoop=1;jettySize=auto;html=1;" edge="1" parent="1" source="3jRFPmHKz-0kJbSXt1-v-35" target="3jRFPmHKz-0kJbSXt1-v-41">
          <mxGeometry relative="1" as="geometry" />
        </mxCell>
        <mxCell id="3jRFPmHKz-0kJbSXt1-v-35" value="Play Again?" style="text;html=1;align=center;verticalAlign=middle;whiteSpace=wrap;rounded=0;" vertex="1" parent="1">
          <mxGeometry x="450" y="450" width="60" height="30" as="geometry" />
        </mxCell>
        <mxCell id="3jRFPmHKz-0kJbSXt1-v-40" value="" style="edgeStyle=orthogonalEdgeStyle;rounded=0;orthogonalLoop=1;jettySize=auto;html=1;" edge="1" parent="1" source="3jRFPmHKz-0kJbSXt1-v-37" target="3jRFPmHKz-0kJbSXt1-v-39">
          <mxGeometry relative="1" as="geometry" />
        </mxCell>
        <mxCell id="3jRFPmHKz-0kJbSXt1-v-37" value="NO" style="text;html=1;align=center;verticalAlign=middle;whiteSpace=wrap;rounded=0;" vertex="1" parent="1">
          <mxGeometry x="450" y="580" width="60" height="30" as="geometry" />
        </mxCell>
        <mxCell id="3jRFPmHKz-0kJbSXt1-v-39" value="End Program" style="text;html=1;align=center;verticalAlign=middle;whiteSpace=wrap;rounded=0;" vertex="1" parent="1">
          <mxGeometry x="540" y="620" width="60" height="30" as="geometry" />
        </mxCell>
        <mxCell id="3jRFPmHKz-0kJbSXt1-v-44" value="" style="edgeStyle=orthogonalEdgeStyle;rounded=0;orthogonalLoop=1;jettySize=auto;html=1;" edge="1" parent="1" source="3jRFPmHKz-0kJbSXt1-v-41" target="3jRFPmHKz-0kJbSXt1-v-43">
          <mxGeometry relative="1" as="geometry" />
        </mxCell>
        <mxCell id="3jRFPmHKz-0kJbSXt1-v-41" value="Yes" style="text;html=1;align=center;verticalAlign=middle;whiteSpace=wrap;rounded=0;" vertex="1" parent="1">
          <mxGeometry x="570" y="450" width="60" height="30" as="geometry" />
        </mxCell>
        <mxCell id="3jRFPmHKz-0kJbSXt1-v-54" value="" style="edgeStyle=orthogonalEdgeStyle;rounded=0;orthogonalLoop=1;jettySize=auto;html=1;" edge="1" parent="1" source="3jRFPmHKz-0kJbSXt1-v-43" target="3jRFPmHKz-0kJbSXt1-v-50">
          <mxGeometry relative="1" as="geometry">
            <Array as="points">
              <mxPoint x="760" y="465" />
            </Array>
          </mxGeometry>
        </mxCell>
        <mxCell id="3jRFPmHKz-0kJbSXt1-v-63" value="" style="edgeStyle=orthogonalEdgeStyle;rounded=0;orthogonalLoop=1;jettySize=auto;html=1;" edge="1" parent="1" source="3jRFPmHKz-0kJbSXt1-v-43" target="3jRFPmHKz-0kJbSXt1-v-45">
          <mxGeometry relative="1" as="geometry" />
        </mxCell>
        <mxCell id="3jRFPmHKz-0kJbSXt1-v-43" value="Input Again" style="text;html=1;align=center;verticalAlign=middle;whiteSpace=wrap;rounded=0;" vertex="1" parent="1">
          <mxGeometry x="660" y="450" width="60" height="30" as="geometry" />
        </mxCell>
        <mxCell id="3jRFPmHKz-0kJbSXt1-v-49" value="" style="edgeStyle=orthogonalEdgeStyle;rounded=0;orthogonalLoop=1;jettySize=auto;html=1;entryX=0.5;entryY=0;entryDx=0;entryDy=0;" edge="1" parent="1" source="3jRFPmHKz-0kJbSXt1-v-45" target="3jRFPmHKz-0kJbSXt1-v-39">
          <mxGeometry relative="1" as="geometry">
            <mxPoint x="560" y="595" as="targetPoint" />
          </mxGeometry>
        </mxCell>
        <mxCell id="3jRFPmHKz-0kJbSXt1-v-45" value="&amp;lt; 1&amp;nbsp;&lt;span style=&quot;background-color: transparent; color: light-dark(rgb(0, 0, 0), rgb(255, 255, 255));&quot;&gt;&amp;amp;&amp;nbsp;&lt;/span&gt;&lt;span style=&quot;background-color: transparent; color: light-dark(rgb(0, 0, 0), rgb(255, 255, 255));&quot;&gt;&amp;gt; 100&lt;/span&gt;" style="text;html=1;align=center;verticalAlign=middle;whiteSpace=wrap;rounded=0;" vertex="1" parent="1">
          <mxGeometry x="650" y="570" width="80" height="50" as="geometry" />
        </mxCell>
        <mxCell id="3jRFPmHKz-0kJbSXt1-v-50" value="&lt;font style=&quot;font-size: 72px;&quot;&gt;You Won&lt;/font&gt;" style="text;html=1;align=center;verticalAlign=middle;whiteSpace=wrap;rounded=0;" vertex="1" parent="1">
          <mxGeometry x="570" y="330" width="380" height="70" as="geometry" />
        </mxCell>
        <mxCell id="3jRFPmHKz-0kJbSXt1-v-60" value="" style="edgeStyle=orthogonalEdgeStyle;rounded=0;orthogonalLoop=1;jettySize=auto;html=1;" edge="1" parent="1" source="3jRFPmHKz-0kJbSXt1-v-58" target="3jRFPmHKz-0kJbSXt1-v-35">
          <mxGeometry relative="1" as="geometry" />
        </mxCell>
        <mxCell id="3jRFPmHKz-0kJbSXt1-v-58" value="Input Again" style="text;html=1;align=center;verticalAlign=middle;whiteSpace=wrap;rounded=0;" vertex="1" parent="1">
          <mxGeometry x="335" y="440" width="80" height="50" as="geometry" />
        </mxCell>
      </root>
    </mxGraphModel>
  </diagram>
</mxfile>
